<svg width="500" height="500" viewBox="0 0 500 500" fill="none" xmlns="http://www.w3.org/2000/svg">
<rect width="500" height="500" rx="96" fill="black"/>
<path d="M175.123 247.745V317.492C175.123 333.615 175.123 343.829 175.123 357.991C175.123 360.808 175.123 363.782 175.123 366.99H107.508V357.991L107.508 142L107.508 133H175.123L175.123 142L175.123 247.745Z" fill="white"/>
<path d="M177.377 133H175.123L175.123 142C175.123 139.75 179.631 137.5 179.631 135.25C179.631 133.45 178.128 133 177.377 133Z" fill="white"/>
<path d="M107.508 142L107.508 133H105.254C104.503 133 103 133.45 103 135.25C103 137.5 107.508 139.75 107.508 142Z" fill="white"/>
<path d="M175.123 357.991L175.123 366.99L177.377 366.99C178.128 366.99 179.631 366.54 179.631 364.741C179.631 362.491 175.123 360.241 175.123 357.991Z" fill="white"/>
<path d="M107.508 366.99V357.991C107.508 360.241 103 362.491 103 364.741C103 366.54 104.503 366.99 105.254 366.99H107.508Z" fill="white"/>
<path d="M380.223 135.25C380.223 134.469 379.941 133.943 379.559 133.596L370.206 142C373.27 139.247 380.223 137.5 380.223 135.25Z" fill="white"/>
<path d="M395.382 366.351C395.74 366.005 396 365.49 396 364.741C396 362.491 389.85 360.636 387.29 357.991L395.382 366.351Z" fill="white"/>
<path fill-rule="evenodd" clip-rule="evenodd" d="M175.123 247.745L293.516 142L296.875 139L303.592 133H375.715H377.969C378.395 133 379.061 133.144 379.559 133.596L370.206 142L267.531 234.246L387.29 357.991L395.382 366.351C394.879 366.837 394.185 366.99 393.746 366.99H391.492H310.354L301.779 357.991L222.454 274.744L175.123 317.492V247.745Z" fill="white"/>
<path d="M308.1 366.99H310.354L301.779 357.991C303.922 360.241 305.846 362.26 305.846 364.741C305.846 366.725 307.349 367.067 308.1 366.99Z" fill="white"/>
<path d="M303.592 133H301.338C300.587 133 299.085 133.45 299.085 135.25C299.085 136.5 298.143 137.75 296.875 139L303.592 133Z" fill="white"/>
</svg>
