<svg width="530" height="85" viewBox="0 0 530 85" fill="none" xmlns="http://www.w3.org/2000/svg">
<path d="M426.202 83.3532V80.2077V4.71806V1.57275H449.006L510.341 60.549H506.41V4.71806V1.57275H528.427V4.71806V80.2077V83.3532H504.051L501.282 80.6952L500.774 80.2077L442.715 24.4713H446.647V80.2077V83.3532H426.202Z" fill="white"/>
<path d="M426.202 1.57275H425.415C425.153 1.57272 424.629 1.72993 424.629 2.35901C424.629 3.14536 426.202 3.93171 426.202 4.71806V1.57275Z" fill="white"/>
<path d="M425.415 83.3532H426.202V80.2077C426.202 80.994 424.629 81.7804 424.629 82.5667C424.629 83.1958 425.153 83.3531 425.415 83.3532Z" fill="white"/>
<path d="M446.647 83.3532H447.433C447.695 83.3531 448.22 83.1958 448.22 82.5667C448.22 81.7804 446.647 80.994 446.647 80.2077V83.3532Z" fill="white"/>
<path d="M528.427 83.3532H529.214C529.476 83.3531 530 83.1958 530 82.5667C530 81.7804 528.427 80.994 528.427 80.2077V83.3532Z" fill="white"/>
<path d="M529.214 1.57275L528.427 1.57275V4.71806C528.427 3.93171 530 3.14536 530 2.35901C530 1.72993 529.476 1.57272 529.214 1.57275Z" fill="white"/>
<path d="M506.41 1.57275L505.623 1.57275C505.361 1.57272 504.837 1.72993 504.837 2.35901C504.837 3.14536 506.41 3.93171 506.41 4.71806V1.57275Z" fill="white"/>
<path d="M503.264 83.3532H504.051L501.282 80.6952C501.921 81.319 502.478 81.9429 502.478 82.5667C502.478 83.1958 503.002 83.3531 503.264 83.3532Z" fill="white"/>
<path d="M347.136 34.5186L389.599 34.5939L392.744 34.5995V49.5402H389.599H347.136V34.5186ZM347.136 67.6262H410.044H413.189L411.616 83.3532L409.257 83.3531L408.471 83.3531L323.545 83.3532L323.545 80.2077L323.545 4.7181L323.545 1.5728H406.898H410.044V17.2998H406.898H347.136V67.6262Z" fill="white"/>
<path d="M322.759 83.3532H323.545L323.545 80.2077C323.545 80.9941 321.972 81.7804 321.972 82.5668C321.972 83.1958 322.497 83.3532 322.759 83.3532Z" fill="white"/>
<path d="M322.759 1.5728C322.497 1.57276 321.972 1.72997 321.972 2.35905C321.972 3.1454 323.545 3.93175 323.545 4.7181L323.545 1.5728H322.759Z" fill="white"/>
<path d="M410.044 1.5728V0.78635C410.044 0.524233 409.886 0 409.257 0C408.471 0 407.685 1.5728 406.898 1.5728H410.044Z" fill="white"/>
<path d="M410.044 18.0861V17.2998H406.898C407.685 17.2999 408.471 18.8724 409.257 18.8724C409.886 18.8724 410.044 18.3482 410.044 18.0861Z" fill="white"/>
<path d="M392.744 50.3264L392.744 49.5402H389.599C390.385 49.5403 391.171 51.1128 391.958 51.1128C392.587 51.1128 392.744 50.5885 392.744 50.3264Z" fill="white"/>
<path d="M392.744 34.5995L392.744 33.8131C392.744 33.5509 392.587 33.0267 391.958 33.0267C391.171 33.0267 390.385 34.5953 389.599 34.5939L392.744 34.5995Z" fill="white"/>
<path d="M413.189 67.6262V66.8398C413.189 66.5776 413.032 66.0534 412.403 66.0534C411.616 66.0534 410.83 67.6263 410.044 67.6262H413.189Z" fill="white"/>
<path d="M410.83 84.1395C411.459 84.1395 411.616 83.6153 411.616 83.3532L409.257 83.3531C410.044 83.3532 410.044 84.1395 410.83 84.1395Z" fill="white"/>
<path d="M245.151 83.3532L243.494 80.2077L203.748 4.71806L202.092 1.57275H227.016L228.671 4.71806L265.024 73.8121H250.119L286.462 4.71806L288.116 1.57275H311.395L309.739 4.71806L269.992 80.2077L268.336 83.3532H245.151Z" fill="white"/>
<path d="M202.092 1.57275L201.306 1.57275C201.043 1.57272 200.519 1.72993 200.519 2.35901C200.519 3.14536 203.334 3.93171 203.748 4.71806L202.092 1.57275Z" fill="white"/>
<path d="M312.181 1.57275H311.395L309.739 4.71806C310.192 3.85745 312.967 3.14536 312.967 2.35901C312.967 1.72993 312.443 1.57272 312.181 1.57275Z" fill="white"/>
<path d="M288.116 1.57275L287.018 1.57266C286.756 1.57266 286.231 1.72993 286.231 2.35901C286.231 3.14536 286.876 3.93171 286.462 4.71806L288.116 1.57275Z" fill="white"/>
<path d="M228.041 1.57275L227.016 1.57275L228.671 4.71806C228.257 3.93171 228.828 3.14536 228.828 2.35901C228.828 1.72993 228.304 1.57272 228.041 1.57275Z" fill="white"/>
<path d="M244.555 83.3532H245.151L243.494 80.2077C243.908 80.994 243.768 81.7804 243.768 82.5667C243.768 83.1958 244.293 83.3531 244.555 83.3532Z" fill="white"/>
<path d="M268.336 83.3532L268.932 83.3531C269.194 83.3531 269.718 83.1958 269.718 82.5667C269.718 81.7804 269.578 80.994 269.992 80.2077L268.336 83.3532Z" fill="white"/>
<path d="M151.907 83.3531C144.068 83.3531 136.796 82.3365 130.091 80.3033C123.48 78.2701 117.718 75.4085 112.807 71.7186C107.991 68.0287 104.213 63.6987 101.474 58.7286C98.8297 53.7585 97.5074 48.3366 97.5074 42.4629C97.5074 36.5892 98.8297 31.1673 101.474 26.1972C104.213 21.2271 108.038 16.8971 112.949 13.2072C117.86 9.51729 123.621 6.65572 130.232 4.62251C136.843 2.5893 144.021 1.57269 151.766 1.57269C159.604 1.57269 166.782 2.5893 173.299 4.62251C179.91 6.65572 185.624 9.51729 190.441 13.2072C195.352 16.8971 199.177 21.2271 201.915 26.1972C204.654 31.092 206.024 36.5139 206.024 42.4629C206.024 48.3366 204.654 53.7962 201.915 58.8416C199.177 63.8116 195.352 68.1416 190.441 71.8316C185.624 75.4462 179.91 78.2701 173.299 80.3033C166.782 82.3365 159.652 83.3531 151.907 83.3531ZM151.766 67.7651C156.204 67.7651 160.266 67.1627 163.949 65.9578C167.727 64.753 171.032 63.021 173.866 60.7618C176.699 58.5027 178.871 55.8294 180.382 52.7419C181.988 49.6545 182.791 46.2281 182.791 42.4629C182.791 38.6977 181.988 35.2713 180.382 32.1839C178.871 29.0964 176.699 26.4231 173.866 24.164C171.127 21.9048 167.868 20.1728 164.091 18.968C160.313 17.7631 156.204 17.1607 151.766 17.1607C147.327 17.1607 143.218 17.7631 139.441 18.968C135.757 20.1728 132.499 21.9048 129.666 24.164C126.832 26.4231 124.613 29.0964 123.007 32.1839C121.496 35.2713 120.741 38.6977 120.741 42.4629C120.741 46.1528 121.496 49.5791 123.007 52.7419C124.613 55.8294 126.785 58.5027 129.524 60.7618C132.357 63.021 135.663 64.753 139.441 65.9578C143.218 67.1627 147.327 67.7651 151.766 67.7651Z" fill="white"/>
<path d="M25.1632 41.6765V66.0533C25.1632 71.6881 25.1632 75.2582 25.1632 80.2077C25.1632 81.1925 25.1632 82.2319 25.1632 83.353H1.5727V80.2077L1.5727 4.71809L1.5727 1.57269H25.1632L25.1632 4.71809L25.1632 41.6765Z" fill="white"/>
<path d="M25.9496 1.57269H25.1632L25.1632 4.71809C25.1632 3.93174 26.7359 3.14539 26.7359 2.35904C26.7359 1.72996 26.2117 1.57269 25.9496 1.57269Z" fill="white"/>
<path d="M1.5727 4.71809L1.5727 1.57269H0.78635C0.524233 1.57269 0 1.72996 0 2.35904C0 3.14539 1.5727 3.93174 1.5727 4.71809Z" fill="white"/>
<path d="M25.1632 80.2077L25.1632 83.353L25.9496 83.3531C26.2117 83.3531 26.7359 83.1958 26.7359 82.5668C26.7359 81.7804 25.1632 80.9941 25.1632 80.2077Z" fill="white"/>
<path d="M1.5727 83.353V80.2077C1.57271 80.9941 0 81.7804 0 82.5668C0 83.1958 0.524233 83.3531 0.78635 83.353H1.5727Z" fill="white"/>
<path d="M96.7211 2.35904C96.7211 2.08624 96.6225 1.90216 96.4895 1.78116L93.2262 4.71809C94.295 3.75614 96.7211 3.14539 96.7211 2.35904Z" fill="white"/>
<path d="M102.01 83.1297C102.135 83.0087 102.226 82.8286 102.226 82.5668C102.226 81.7804 100.08 81.1321 99.1868 80.2077L102.01 83.1297Z" fill="white"/>
<path fill-rule="evenodd" clip-rule="evenodd" d="M25.1632 41.6765L66.4697 4.71809L67.6414 3.66971L69.9852 1.57269H95.1484H95.9347C96.0832 1.57269 96.3157 1.62314 96.4895 1.78116L93.2262 4.71809L57.4036 36.9584L99.1868 80.2077L102.01 83.1297C101.835 83.2995 101.592 83.353 101.439 83.353H100.653H72.3442L69.3523 80.2077L41.6766 51.1127L25.1632 66.0533V41.6765Z" fill="white"/>
<path d="M71.5579 83.353H72.3442L69.3523 80.2077C70.1003 80.9941 70.7715 81.6997 70.7715 82.5668C70.7715 83.2605 71.2957 83.38 71.5579 83.353Z" fill="white"/>
<path d="M69.9852 1.57269H69.1988C68.9367 1.57269 68.4125 1.72996 68.4125 2.35904C68.4125 2.79593 68.0841 3.23282 67.6414 3.66971L69.9852 1.57269Z" fill="white"/>
</svg>
